# xmcd
#
# Track frame offsets:
#	150
#	11690
#	23965
#	36965
#	48490
#	63452
#	83882
#	97425
#	110077
#	124272
#	134645
#	147542
#
# Disc length: 2169 seconds
#
# Revision: 0
# Processed by: cddbd v1.4b42PL1 Copyright (c) Steve Scherf et al.
# Submitted via: EasyCDDAExtractor 4.5.0.2
#
DISCID=bc08770c
DTITLE=Various Artist - This Is Outlaw Country
DYEAR=1998
DGENRE=country
TTITLE0=Waylon Jennings and Willie Nelson - Mammas Don't Let Your Babies Grow Up
TTITLE0=To Be Cowboys
TTITLE1=Freddy Fender - Wasted Days And Wasted Nights
TTITLE2=Merle Haggard and The Strangers - The Fightin' Side Of Me
TTITLE3=Waylon Jennings - Ladies Love Outlaws
TTITLE4=Johnny Rodriguez - Desperado
TTITLE5=Jerry Jeff Walker - Up Against The Wall, Redneck Mother
TTITLE6=Mickey Gilley - Don't The Girls All Get Prettier At Closing Time
TTITLE7=Gary Stewart - She's Actin' Single (I'm Drinkin' Doubles)
TTITLE8=Hank Williams, Jr. - Whiskey Bent And Hell Bound
TTITLE9=Tompall Glaser - Put Another Log On The Fire
TTITLE10=Willie Nelson - Midnight Rider
TTITLE11=David Allan Coe - Willie, Waylon And Me
EXTD=
EXTT0=
EXTT1=
EXTT2=
EXTT3=
EXTT4=
EXTT5=
EXTT6=
EXTT7=
EXTT8=
EXTT9=
EXTT10=
EXTT11=
PLAYORDER=
